<svg width="618" height="412" viewBox="0 0 618 412" fill="none" xmlns="http://www.w3.org/2000/svg">
<path d="M439 241H9C6.61388 240.997 4.32625 240.048 2.63901 238.361C0.951762 236.674 0.00268648 234.386 0 232V9C0.00277099 6.6139 0.951872 4.32634 2.6391 2.63911C4.32633 0.951887 6.6139 0.00277099 9 0H439C441.386 0.00268912 443.674 0.951778 445.361 2.63902C447.048 4.32627 447.997 6.61388 448 9V232C447.997 234.386 447.048 236.674 445.361 238.361C443.674 240.048 441.386 240.997 439 241V241ZM9 2C7.14412 2.00208 5.36486 2.74025 4.05255 4.05255C2.74025 5.36486 2.00208 7.14412 2 9V232C2.00216 233.856 2.74037 235.635 4.05266 236.947C5.36494 238.26 7.14415 238.998 9 239H439C440.856 238.998 442.635 238.26 443.947 236.947C445.26 235.635 445.998 233.856 446 232V9C445.998 7.14415 445.26 5.36494 443.947 4.05266C442.635 2.74037 440.856 2.00216 439 2H9Z" fill="#3F3D56"/>
<path d="M140 106.5H72C69.6139 106.497 67.3263 105.548 65.6391 103.861C63.9519 102.174 63.0028 99.8861 63 97.5V41.5C63.0028 39.1139 63.9519 36.8263 65.6391 35.1391C67.3263 33.4519 69.6139 32.5028 72 32.5H140C142.386 32.5027 144.674 33.4518 146.361 35.139C148.048 36.8263 148.997 39.1139 149 41.5V97.5C148.997 99.8861 148.048 102.174 146.361 103.861C144.674 105.548 142.386 106.497 140 106.5ZM72 34.5C70.1441 34.5021 68.3649 35.2402 67.0526 36.5526C65.7402 37.8649 65.0021 39.6441 65 41.5V97.5C65.0021 99.3559 65.7402 101.135 67.0526 102.447C68.3649 103.76 70.1441 104.498 72 104.5H140C141.856 104.498 143.635 103.76 144.947 102.447C146.26 101.135 146.998 99.3559 147 97.5V41.5C146.998 39.6441 146.26 37.8649 144.947 36.5527C143.635 35.2404 141.856 34.5022 140 34.5H72Z" fill="#3F3D56"/>
<path d="M59.5 127.5C57.7761 127.5 56.1228 128.185 54.9038 129.404C53.6848 130.623 53 132.276 53 134C53 135.724 53.6848 137.377 54.9038 138.596C56.1228 139.815 57.7761 140.5 59.5 140.5H388.5C390.224 140.5 391.877 139.815 393.096 138.596C394.315 137.377 395 135.724 395 134C395 132.276 394.315 130.623 393.096 129.404C391.877 128.185 390.224 127.5 388.5 127.5H59.5Z" fill="#E6E6E6"/>
<path d="M170.5 59.5C168.776 59.5 167.123 60.1848 165.904 61.4038C164.685 62.6228 164 64.2761 164 66C164 67.7239 164.685 69.3772 165.904 70.5962C167.123 71.8152 168.776 72.5 170.5 72.5H311.5C313.224 72.5 314.877 71.8152 316.096 70.5962C317.315 69.3772 318 67.7239 318 66C318 64.2761 317.315 62.6228 316.096 61.4038C314.877 60.1848 313.224 59.5 311.5 59.5H170.5Z" fill="#6C63FF"/>
<path d="M170.5 93.5C168.776 93.5 167.123 94.1848 165.904 95.4038C164.685 96.6228 164 98.2761 164 100C164 101.724 164.685 103.377 165.904 104.596C167.123 105.815 168.776 106.5 170.5 106.5H385.5C387.224 106.5 388.877 105.815 390.096 104.596C391.315 103.377 392 101.724 392 100C392 98.2761 391.315 96.6228 390.096 95.4038C388.877 94.1848 387.224 93.5 385.5 93.5H170.5Z" fill="#6C63FF"/>
<path d="M59.5 161.5C57.7761 161.5 56.1228 162.185 54.9038 163.404C53.6848 164.623 53 166.276 53 168C53 169.724 53.6848 171.377 54.9038 172.596C56.1228 173.815 57.7761 174.5 59.5 174.5H388.5C390.224 174.5 391.877 173.815 393.096 172.596C394.315 171.377 395 169.724 395 168C395 166.276 394.315 164.623 393.096 163.404C391.877 162.185 390.224 161.5 388.5 161.5H59.5Z" fill="#E6E6E6"/>
<path d="M59.5 195.5C57.7761 195.5 56.1228 196.185 54.9038 197.404C53.6848 198.623 53 200.276 53 202C53 203.724 53.6848 205.377 54.9038 206.596C56.1228 207.815 57.7761 208.5 59.5 208.5H388.5C390.224 208.5 391.877 207.815 393.096 206.596C394.315 205.377 395 203.724 395 202C395 200.276 394.315 198.623 393.096 197.404C391.877 196.185 390.224 195.5 388.5 195.5H59.5Z" fill="#E6E6E6"/>
<path d="M105.196 97.4355C120.552 97.4355 133 84.9872 133 69.6313C133 54.2754 120.552 41.827 105.196 41.827C89.84 41.827 77.3916 54.2754 77.3916 69.6313C77.3916 84.9872 89.84 97.4355 105.196 97.4355Z" fill="#CCCCCC"/>
<path d="M105.919 100.376C117.348 100.376 126.613 91.1112 126.613 79.6823C126.613 68.2533 117.348 58.9883 105.919 58.9883C94.4901 58.9883 85.2251 68.2533 85.2251 79.6823C85.2251 91.1112 94.4901 100.376 105.919 100.376Z" fill="#E6E6E6"/>
<path d="M85.2749 66.4852C93.3565 71.4186 102.468 74.4206 111.899 75.2578L109.092 71.8951C111.136 72.6506 113.286 73.0776 115.463 73.1601C116.553 73.1917 117.635 72.9674 118.623 72.5051C119.61 72.0429 120.476 71.3556 121.15 70.4984C121.7 69.6082 122.027 68.5981 122.103 67.5543C122.179 66.5104 122.001 65.4637 121.584 64.5035C120.729 62.5884 119.398 60.9239 117.718 59.6686C114.739 57.3124 111.224 55.7297 107.485 55.0616C103.747 54.3934 99.9011 54.6606 96.2909 55.8392C93.8144 56.5793 91.5966 58.002 89.8913 59.9443C89.0531 60.9227 88.4709 62.0939 88.197 63.3528C87.9231 64.6118 87.966 65.9191 88.322 67.1573" fill="#CCCCCC"/>
<path d="M617.205 398.612C600.455 388.726 581.106 384.137 561.7 385.45C542.294 386.763 523.739 393.916 508.472 405.968C507.359 407.049 506.117 407.989 504.774 408.768C503.584 409.286 502.164 408.858 500.975 408.559C493.107 406.58 484.851 403.536 479.059 397.623C474.058 392.518 470.561 384.703 473.08 377.588C474.147 374.888 476.034 372.59 478.476 371.02C480.918 369.449 483.791 368.685 486.69 368.835C493.619 369.454 496.454 377.148 494.941 383.175C493.152 390.299 486.221 395.063 479.639 397.351C467.509 401.566 453.441 398.627 443.416 390.783C438.114 386.671 434.097 381.13 431.838 374.812C429.086 367.034 428.915 358.601 430.344 350.531C433.33 333.658 442.477 319.18 451.064 304.68C459.057 291.183 467.041 276.724 468.042 260.739C468.838 248.021 465.504 233.972 456.02 224.925C453.779 222.787 451.236 220.99 448.473 219.591C446.754 218.721 445.234 221.308 446.959 222.181C459.225 228.393 464.681 242.166 465.121 255.297C465.669 271.674 458.173 286.559 450.128 300.352C441.289 315.507 431.405 330.388 427.811 347.851C426.106 356.136 425.83 364.833 428.13 373.036C430.053 380.027 433.92 386.329 439.283 391.208C449.284 400.238 463.771 404.349 476.962 401.251C484.039 399.589 491.115 395.735 495.262 389.615C499.287 383.674 499.69 374.931 494.523 369.492C489.949 364.678 482.603 365.001 477.252 368.289C471.103 372.067 468.43 378.802 469.546 385.839C470.793 393.699 476.305 400.305 482.87 404.466C486.607 406.765 490.616 408.591 494.804 409.903C496.894 410.613 499.02 411.209 501.174 411.688C502.595 412.083 504.097 412.082 505.517 411.688C506.873 411.091 508.113 410.259 509.179 409.23C510.967 407.758 512.819 406.369 514.72 405.047C518.403 402.489 522.262 400.193 526.267 398.176C538.25 392.118 551.403 388.728 564.822 388.24C578.24 387.752 591.605 390.178 603.997 395.35C608.028 397.022 611.936 398.978 615.691 401.202C616.034 401.387 616.435 401.432 616.809 401.326C617.184 401.221 617.503 400.975 617.7 400.639C617.896 400.303 617.954 399.903 617.862 399.525C617.77 399.147 617.534 398.82 617.205 398.612V398.612Z" fill="#3F3D56"/>
</svg>
